PathFileType	4	(X/Y/Z)	Patient4_TMGait_0pt7_02_left_12.trc.trc
DataRate	CameraRate	NumFrames	NumMarkers	Units	OrigDataRate	OrigDataStartFrame	OrigNumFrames
86.419753086420	86.419753086420	5	33	mm	86.419753086420	106	       141
Frame#	Time	Sacral			L.Shoulder			Chest			R.Shoulder			Neck			R.ASIS			L.ASIS			R.Thigh.Superior			R.Thigh.Lateral			R.Thigh.Inferior			R.Patella			L.Thigh.Superior			L.Thigh.Lateral			L.Thigh.Inferior			L.Patella			L.Shank.Superior			L.Shank.Lateral			L.Shank.Inferior			R.Shank.Superior			R.Shank.Lateral			R.Shank.Inferior			R.Heel			R.Midfoot.Superior			R.Midfoot.Lateral			R.Toe			L.Heel			L.Midfoot.Lateral			L.Midfoot.Superior			L.Toe			L.Elbow			L.Wrist			R.Elbow			R.Wrist			
		X1	Y1	Z1	X2	Y2	Z2	X3	Y3	Z3	X4	Y4	Z4	X5	Y5	Z5	X6	Y6	Z6	X7	Y7	Z7	X8	Y8	Z8	X9	Y9	Z9	X10	Y10	Z10	X11	Y11	Z11	X12	Y12	Z12	X13	Y13	Z13	X14	Y14	Z14	X15	Y15	Z15	X16	Y16	Z16	X17	Y17	Z17	X18	Y18	Z18	X19	Y19	Z19	X20	Y20	Z20	X21	Y21	Z21	X22	Y22	Z22	X23	Y23	Z23	X24	Y24	Z24	X25	Y25	Z25	X26	Y26	Z26	X27	Y27	Z27	X28	Y28	Z28	X29	Y29	Z29	X30	Y30	Z30	X31	Y31	Z31	X32	Y32	Z32	X33	Y33	Z33	

106	14.605000000000	754.116283599983	1018.508314425434	527.470174367598	940.957712542705	1422.477315693391	309.503885810068	1058.371278507592	1350.124410104050	461.064123139633	1004.955808226381	1443.251254527958	637.853401620849	969.191493860806	1490.674062164768	458.411713008489	984.479782297239	943.503264935061	630.968767325455	951.673828949498	959.465694724259	357.676491468020	1005.036395742059	738.182601205576	602.907255335319	912.459875608182	636.607114433509	661.589931671098	982.480265786389	578.354854945648	580.592125594565	974.090127114311	493.314291101038	584.075956157076	1047.420603733850	808.649174225244	386.772754283414	1026.118185971941	682.315811664657	296.994139773444	1140.357249807570	634.787281940693	355.849525022203	1169.212564883856	547.757404318721	342.606311818340	1113.569341349183	470.752070993746	337.358582664708	979.058899625279	404.610839977814	295.452659660529	993.188361864566	274.251010753367	347.629199563120	945.765129249771	406.865166382651	588.617785297812	872.607133247395	303.236287699510	648.004954754582	913.176842862599	208.903554382995	581.191171980174	776.321596331784	45.063261470013	547.087293733609	949.522467900429	97.565165536939	581.698714676325	860.701015375383	37.434102749783	619.147999741096	1068.925259166535	40.503069387147	606.516354011149	820.116866435562	182.123498444022	393.531122322945	878.944594373334	140.231058949454	312.166258421956	982.921780659117	163.297603134514	327.553661576808	1073.533344194266	60.997155662742	300.004638983013	823.297894330968	1079.828658545296	240.913944712566	799.929447730508	820.837265266195	245.410834927243	1013.177151597224	1105.832644098925	784.568442060225	1216.071869848504	967.375115898819	705.313722334506	
107	14.616571428571	753.237750679413	1018.895327300405	527.839393548761	940.385935474034	1422.606009719985	309.856340939310	1058.146636521790	1349.737869138200	460.909545161501	1005.575762362981	1442.846301387313	638.053889185613	969.073470772352	1490.523956795724	458.840074189641	983.517096175852	943.271489520529	630.870112764505	950.323473144473	959.242594685054	357.603275805960	1001.829974798572	737.469047374345	602.436381817118	908.498285752669	636.601020625607	661.693329628372	977.612989492408	577.653170625766	580.576824286581	968.360527654065	492.866646135690	584.182682352019	1046.258044748614	810.220839263900	387.048531721895	1027.039851694393	683.870593669271	296.797522858177	1141.219534488268	637.613197070303	356.154771068851	1171.707086662140	551.853270904780	342.709620306199	1119.399770113722	473.568354953481	337.195087132999	988.558047731073	400.769154505855	295.127032280094	1009.674072054321	270.973725539104	346.863501370189	939.554708298460	406.597012368328	588.673851722267	865.867507837653	303.370370144293	648.114770749351	905.866236816736	208.849829567265	581.257418800947	768.212373604532	45.292022075992	547.146621031150	941.511047958242	97.565907588236	581.779782646280	852.583391862358	37.487460769703	619.175308644859	1060.770836659617	40.351890807872	606.614267218415	841.963031787337	168.966198434499	392.784108619618	902.804782717628	131.371892296724	310.827567468755	1005.405771320762	160.041926587198	326.198916075018	1101.626961095469	63.247144039047	297.358504284078	815.990596799894	1082.676910117378	240.700702134738	786.094842765545	824.582031883960	247.408363788020	1021.999922750746	1105.815088478756	783.775901762543	1231.460667913616	982.738370572447	698.465669224179	
108	14.628142857143	752.421302118561	1019.175191010199	528.041481149595	939.772823748034	1422.707586572784	310.130166201865	1057.908382705814	1349.280802135227	460.624058683873	1006.207965310934	1442.301216906678	638.147201496546	968.947190142294	1490.289165533051	459.199008570309	982.571220289725	942.966402162670	630.627957812510	949.094137115630	958.872039574427	357.353508367280	998.677262358347	736.684741359814	601.957778997789	904.523720325695	636.533157577647	661.717061805022	972.745281904329	576.894417041410	580.515214377161	962.624561344465	492.370217191840	584.210740906045	1044.895185690736	811.214866383573	387.263108033363	1027.419405562481	684.802523277561	296.717385320597	1141.337226823711	639.525991847061	356.642997864254	1173.260554320684	555.173944926498	343.160564563702	1124.425203497756	475.874216548394	337.262689472861	998.026545909639	396.437026347320	294.403411718585	1026.077383243511	267.613611237708	345.851000508930	933.335467358455	406.274915725884	588.652833070899	859.131781352393	303.455603586035	648.165317494192	898.538862869992	208.754940409233	581.274514577043	760.086802501038	45.482509658081	547.200513577308	933.495893908535	97.575659642402	581.853162071839	844.451853047316	37.535847772777	619.222621422706	1052.609737866809	40.232819009656	606.701747676782	864.370932479114	155.823597907238	391.031875569788	927.323544777928	122.719294270599	308.819409702016	1028.058081663056	156.978841767160	324.641471974378	1129.699429701322	66.129933685198	295.058572429683	808.681590831068	1085.700359028875	240.287847558417	773.419552470824	828.465675319856	249.266814463687	1030.763770440487	1105.884241986656	782.701235437009	1245.659407803791	998.944850730433	691.332675398345	
109	14.639714285714	751.679199383942	1019.341385685157	528.074849807016	939.127401520499	1422.777108441549	310.320821714752	1057.657390252861	1348.757343741219	460.210086755456	1006.840275569198	1441.624511731303	638.123661485293	968.811209569218	1489.968981585530	459.480037023478	981.656473437764	942.585450309301	630.250870005316	948.007446571019	958.367231239815	356.929480344923	995.589543308916	735.818440145335	601.501236818549	900.528129190185	636.397411878802	661.653901593717	967.883783760449	576.074456168180	580.413245415849	956.890534310330	491.812830563200	584.151352252609	1043.364061384635	811.618646221424	387.416052115302	1027.223915757701	685.070188072280	296.749128470946	1140.715708422147	640.476206474420	357.278907942010	1173.876106151153	557.669866002269	343.957286929396	1128.607513050355	477.644671606523	337.574212236579	1007.437567423578	391.687283450016	293.261638222905	1042.266141098261	264.257386773764	344.633710236689	927.104137166771	405.892655763117	588.551937805392	852.392440318228	303.486723732734	648.146544329035	891.190634870657	208.609811343554	581.234522981217	751.942250522013	45.620494790900	547.244780952553	925.465889709769	97.589367570112	581.913701874540	836.302809436341	37.577010609065	619.290061876886	1044.441704425251	40.149779147474	606.777746224274	887.174784881408	142.874674125847	388.283518643122	952.352302405271	114.431211895177	306.193160536587	1050.713583329600	154.227658916981	322.949781177708	1157.550916200095	69.758415632259	293.261839244084	801.492110231285	1088.847251691815	239.755527445187	761.785061080541	832.385272014943	250.973627959957	1039.459307775718	1106.034677086119	781.305285966221	1258.574898560119	1015.855118665398	683.973460952183	
110	14.651285714286	751.030155583385	1019.381924758861	527.940730092280	938.463275043938	1422.806117645489	310.423312579642	1057.396127459911	1348.171627399756	459.674986867354	1007.454806295723	1440.829994968558	637.977450163481	968.659793034653	1489.562576695895	459.675078984918	980.794602675652	942.125259068265	629.749699500956	947.085824221891	957.739805073406	356.335745621991	992.578135280117	734.859592424257	601.079439526654	896.513057295452	636.188715977670	661.496306172354	963.035660516338	575.189986899950	580.267983140265	951.169876131018	491.181852577178	583.994652457930	1041.704946140114	811.424223943863	387.496796686880	1026.436109829136	684.645757521252	296.862980927765	1139.373750800299	640.433704662488	358.010093515498	1173.572064426055	559.307214899094	345.068221582051	1131.916099303947	478.858831920171	338.112918639877	1016.713544879015	386.598450141176	291.721273306597	1058.075392294818	260.974786763335	343.267778037464	920.858969852887	405.442862830545	588.369030684466	845.644899909758	303.459239174216	648.051641269782	883.817650966830	208.405631839018	581.131231492374	743.777073254912	45.694226765594	547.275359005208	917.408202928638	97.599423548721	581.954061156557	828.133409636978	37.607933129961	619.375270779689	1036.265925817183	40.104496002271	606.840695429705	910.158850802644	130.280079827013	384.648322316402	977.660778674273	106.634401599354	303.062515779500	1073.153163019133	151.877058681642	321.200300404024	1184.924440046028	74.187736366507	292.069119693833	794.530475261872	1092.060391824641	239.170770774369	751.080749410751	836.264086146103	252.508035499302	1048.071960251309	1106.266263289877	779.554791740055	1270.134706271088	1033.310945264959	676.456773920759	
